<?xml version="1.0" standalone="no"?>
<!DOCTYPE svg PUBLIC "-//W3C//DTD SVG 20010904//EN"
        "http://www.w3.org/TR/2001/REC-SVG-20010904/DTD/svg10.dtd">
<svg version="1.0" xmlns="http://www.w3.org/2000/svg"
     width="283.000000pt" height="257.000000pt" viewBox="0 0 283.000000 257.000000"
     preserveAspectRatio="xMidYMid meet">

    <g transform="translate(0.000000,257.000000) scale(0.100000,-0.100000)"
       fill="#000000" stroke="none">
        <path d="M1220 2199 c-409 -88 -713 -403 -785 -814 -84 -481 207 -963 670
-1113 364 -118 742 -27 1011 242 180 182 279 405 291 661 22 470 -288 893
-743 1011 -139 37 -313 42 -444 13z m283 -365 c48 -9 49 -31 1 -125 l-35 -71
32 7 c32 7 32 7 25 -26 -3 -18 -8 -34 -9 -36 -2 -2 -25 0 -50 3 -58 8 -60 19
-12 114 19 38 35 72 35 76 0 3 -11 3 -25 0 -23 -6 -25 -4 -25 29 0 38 2 39 63
29z m-153 -31 c0 -16 -6 -61 -14 -100 -12 -62 -12 -73 0 -73 8 0 14 5 14 10 0
23 28 8 33 -17 7 -35 2 -39 -50 -48 -60 -9 -63 7 -27 173 3 15 0 22 -11 22 -8
0 -15 -4 -15 -10 0 -5 -7 -10 -15 -10 -8 0 -15 9 -15 19 0 11 -3 26 -6 35 -6
14 -1 16 89 24 12 2 17 -5 17 -25z m390 -53 c0 -10 -6 -25 -14 -32 -8 -8 -19
-41 -26 -74 -12 -56 -17 -83 -19 -94 -5 -23 -20 -31 -40 -21 -20 11 -20 14 -6
40 13 26 13 30 -1 42 -13 10 -17 10 -25 -2 -5 -8 -9 -19 -9 -26 0 -17 -17 -25
-40 -18 -26 8 -18 26 45 100 28 33 56 74 64 92 12 29 15 31 42 21 18 -6 29
-17 29 -28z m-580 -16 c0 -16 49 -104 77 -137 29 -35 29 -44 2 -52 -21 -7 -40
10 -45 41 -3 19 -66 124 -74 124 -19 0 -22 42 -4 55 16 11 20 10 31 -4 7 -9
13 -21 13 -27z m-84 -61 c36 -40 45 -86 19 -100 -12 -7 -8 -15 20 -42 28 -26
33 -36 24 -47 -20 -24 -36 -16 -64 31 -14 25 -46 66 -70 91 -25 25 -45 50 -45
54 0 12 52 49 69 50 7 0 29 -17 47 -37z m816 -20 c23 -20 23 -45 0 -73 -11
-14 -23 -19 -35 -14 -14 5 -15 9 -6 21 19 23 -6 42 -27 21 -16 -15 -16 -18 0
-33 19 -19 19 -20 5 -47 -17 -31 -61 -67 -83 -68 -22 0 -56 27 -56 45 0 7 9
24 21 39 17 21 24 24 35 15 11 -9 12 -15 3 -26 -18 -21 3 -36 26 -19 19 14 19
15 2 33 -23 26 -22 36 10 73 41 49 76 60 105 33z m-388 -154 l24 -11 -45 -74
c-25 -41 -49 -74 -52 -73 -3 0 -27 34 -53 75 -47 74 -48 75 -25 84 32 13 122
12 151 -1z m-140 -93 c25 -40 46 -76 46 -80 0 -3 -45 -6 -100 -6 -111 0 -112
1 -85 66 14 34 68 94 85 94 4 0 29 -33 54 -74z m220 53 c30 -24 66 -88 66
-119 0 -19 -6 -20 -101 -20 -55 0 -99 4 -97 8 9 23 94 152 99 152 4 0 18 -9
33 -21z m-434 -202 c0 -224 -2 -229 -80 -246 -63 -14 -253 -14 -299 -1 -19 5
-45 19 -58 32 -20 19 -23 31 -23 95 l0 73 105 0 105 0 0 -65 c0 -58 2 -65 20
-65 19 0 20 7 20 185 l0 185 105 0 105 0 0 -193z m912 187 c21 -4 49 -17 63
-30 21 -19 25 -32 25 -79 l0 -55 -105 0 -105 0 0 45 c0 33 -4 45 -15 45 -13 0
-15 -23 -15 -150 l0 -150 30 0 c29 0 30 2 30 45 0 33 -4 45 -15 45 -11 0 -15
11 -15 40 l0 40 105 0 105 0 0 -120 0 -120 -55 0 c-30 0 -55 4 -55 10 0 6 -9
6 -26 0 -14 -6 -71 -10 -127 -10 -83 0 -108 4 -134 20 -41 25 -45 49 -41 228
3 158 11 176 79 192 41 10 220 12 271 4z m-512 -168 c29 -9 36 -16 38 -42 4
-38 -14 -54 -68 -61 -22 -3 -40 -9 -40 -12 0 -4 20 -17 45 -29 l45 -22 0 30
c0 29 1 30 50 30 l50 0 0 -50 c0 -27 5 -50 10 -50 6 0 10 -11 10 -24 l0 -24
-176 -7 c-282 -12 -336 1 -342 82 -3 34 1 44 24 62 21 17 25 24 16 33 -20 20
-14 66 9 78 52 29 248 32 329 6z m600 -406 c0 -7 -250 -10 -730 -10 -480 0
-730 3 -730 10 0 7 250 10 730 10 480 0 730 -3 730 -10z"/>
        <path d="M1656 1671 c-4 -7 -5 -15 -2 -18 9 -9 19 4 14 18 -4 11 -6 11 -12 0z"/>
        <path d="M1026 1652 c-2 -4 2 -16 10 -27 11 -14 17 -16 26 -7 8 8 8 15 -2 27
-14 16 -26 19 -34 7z"/>
        <path d="M1370 1220 c0 -27 3 -30 30 -30 27 0 30 3 30 30 0 27 -3 30 -30 30
-27 0 -30 -3 -30 -30z"/>
        <path d="M1352 1103 l3 -38 58 -3 c34 -2 57 1 57 7 0 6 -27 24 -61 41 l-60 31
3 -38z"/>
    </g>
</svg>